<svg width="2222" height="571" viewBox="0 0 2222 571" fill="none" xmlns="http://www.w3.org/2000/svg">
<path fill-rule="evenodd" clip-rule="evenodd" d="M506.675 104.953C454.32 40.8938 374.685 0 285.5 0C127.823 0 0 127.823 0 285.5C0 317.199 5.16617 347.692 14.7025 376.182L96.1918 287.215L125.548 255.164L132.015 298.143L145.58 388.299L321.639 114.621L348.189 73.3488L359.303 121.148L393.272 267.237L506.675 104.953ZM531.937 141.259L420.407 300.861C402.485 326.508 362.655 318.818 355.569 288.342L329.993 178.346L172.798 422.701C154.761 450.739 111.613 441.49 106.653 408.522L97.4405 347.297L32.5933 418.096C80.3517 509 175.685 571 285.5 571C443.177 571 571 443.177 571 285.5C571 232.881 556.765 183.587 531.937 141.259Z" fill="url(#paint0_linear_4105_7)"/>
<path d="M1054 135.142V463H1015.1V222.083C1015.1 218.88 1015.18 215.448 1015.33 211.787C1015.64 208.127 1015.94 204.39 1016.25 200.577L903.681 405.573C900.172 412.437 894.834 415.869 887.665 415.869H881.259C874.09 415.869 868.752 412.437 865.244 405.573L750.39 199.661C751.306 207.745 751.763 215.219 751.763 222.083V463H712.869V135.142H745.586C749.552 135.142 752.602 135.524 754.738 136.286C756.873 137.049 758.932 139.184 760.915 142.692L874.166 344.486C875.997 348.147 877.751 351.96 879.429 355.926C881.259 359.891 882.937 363.933 884.462 368.052C885.987 363.933 887.589 359.891 889.267 355.926C890.944 351.808 892.775 347.918 894.758 344.257L1005.95 142.692C1007.78 139.184 1009.76 137.049 1011.9 136.286C1014.19 135.524 1017.31 135.142 1021.28 135.142H1054ZM1167.66 231.235V463H1126.93V231.235H1167.66ZM1176.35 158.479C1176.35 162.445 1175.51 166.182 1173.84 169.69C1172.31 173.045 1170.18 176.096 1167.43 178.841C1164.84 181.434 1161.71 183.494 1158.05 185.019C1154.54 186.544 1150.8 187.307 1146.84 187.307C1142.87 187.307 1139.14 186.544 1135.63 185.019C1132.27 183.494 1129.3 181.434 1126.71 178.841C1124.11 176.096 1122.05 173.045 1120.53 169.69C1119 166.182 1118.24 162.445 1118.24 158.479C1118.24 154.513 1119 150.776 1120.53 147.268C1122.05 143.608 1124.11 140.481 1126.71 137.888C1129.3 135.142 1132.27 133.007 1135.63 131.482C1139.14 129.956 1142.87 129.194 1146.84 129.194C1150.8 129.194 1154.54 129.956 1158.05 131.482C1161.71 133.007 1164.84 135.142 1167.43 137.888C1170.18 140.481 1172.31 143.608 1173.84 147.268C1175.51 150.776 1176.35 154.513 1176.35 158.479ZM1273.01 264.867C1278.04 259.223 1283.38 254.114 1289.03 249.538C1294.67 244.962 1300.62 241.073 1306.87 237.87C1313.28 234.514 1319.99 231.997 1327 230.319C1334.17 228.489 1341.88 227.574 1350.11 227.574C1362.77 227.574 1373.91 229.709 1383.52 233.98C1393.28 238.098 1401.36 244.047 1407.77 251.826C1414.33 259.452 1419.28 268.68 1422.64 279.51C1426 290.339 1427.67 302.312 1427.67 315.43V463H1386.72V315.43C1386.72 297.889 1382.68 284.314 1374.59 274.705C1366.66 264.943 1354.54 260.062 1338.22 260.062C1326.17 260.062 1314.88 262.96 1304.35 268.756C1293.98 274.552 1284.37 282.408 1275.53 292.322V463H1234.57V231.235H1259.05C1264.85 231.235 1268.43 234.056 1269.81 239.7L1273.01 264.867ZM1587.42 227.574C1604.35 227.574 1619.61 230.396 1633.18 236.039C1646.76 241.683 1658.35 249.69 1667.96 260.062C1677.57 270.434 1684.89 283.018 1689.92 297.813C1695.11 312.455 1697.7 328.852 1697.7 347.003C1697.7 365.306 1695.11 381.779 1689.92 396.422C1684.89 411.064 1677.57 423.572 1667.96 433.944C1658.35 444.315 1646.76 452.323 1633.18 457.967C1619.61 463.458 1604.35 466.203 1587.42 466.203C1570.34 466.203 1554.93 463.458 1541.21 457.967C1527.63 452.323 1516.04 444.315 1506.43 433.944C1496.82 423.572 1489.42 411.064 1484.24 396.422C1479.2 381.779 1476.69 365.306 1476.69 347.003C1476.69 328.852 1479.2 312.455 1484.24 297.813C1489.42 283.018 1496.82 270.434 1506.43 260.062C1516.04 249.69 1527.63 241.683 1541.21 236.039C1554.93 230.396 1570.34 227.574 1587.42 227.574ZM1587.42 434.401C1610.3 434.401 1627.38 426.775 1638.67 411.522C1649.96 396.117 1655.6 374.687 1655.6 347.232C1655.6 319.624 1649.96 298.118 1638.67 282.713C1627.38 267.307 1610.3 259.605 1587.42 259.605C1575.83 259.605 1565.69 261.588 1556.99 265.553C1548.45 269.519 1541.28 275.239 1535.49 282.713C1529.84 290.186 1525.57 299.414 1522.67 310.396C1519.93 321.226 1518.56 333.504 1518.56 347.232C1518.56 374.687 1524.2 396.117 1535.49 411.522C1546.93 426.775 1564.24 434.401 1587.42 434.401ZM1788.02 277.679C1795.34 261.816 1804.34 249.462 1815.02 240.615C1825.69 231.616 1838.73 227.116 1854.14 227.116C1859.02 227.116 1863.67 227.65 1868.1 228.718C1872.67 229.786 1876.71 231.463 1880.22 233.751L1877.25 264.181C1876.33 267.994 1874.04 269.9 1870.38 269.9C1868.25 269.9 1865.12 269.443 1861 268.528C1856.88 267.612 1852.23 267.155 1847.05 267.155C1839.73 267.155 1833.17 268.223 1827.37 270.358C1821.73 272.493 1816.62 275.696 1812.04 279.967C1807.62 284.085 1803.58 289.271 1799.92 295.525C1796.41 301.626 1793.2 308.642 1790.31 316.574V463H1749.35V231.235H1772.69C1777.11 231.235 1780.16 232.074 1781.84 233.751C1783.52 235.429 1784.66 238.327 1785.27 242.445L1788.02 277.679ZM1959.04 231.235V463H1918.32V231.235H1959.04ZM1967.74 158.479C1967.74 162.445 1966.9 166.182 1965.22 169.69C1963.7 173.045 1961.56 176.096 1958.81 178.841C1956.22 181.434 1953.1 183.494 1949.43 185.019C1945.93 186.544 1942.19 187.307 1938.22 187.307C1934.26 187.307 1930.52 186.544 1927.01 185.019C1923.66 183.494 1920.68 181.434 1918.09 178.841C1915.5 176.096 1913.44 173.045 1911.91 169.69C1910.39 166.182 1909.62 162.445 1909.62 158.479C1909.62 154.513 1910.39 150.776 1911.91 147.268C1913.44 143.608 1915.5 140.481 1918.09 137.888C1920.68 135.142 1923.66 133.007 1927.01 131.482C1930.52 129.956 1934.26 129.194 1938.22 129.194C1942.19 129.194 1945.93 129.956 1949.43 131.482C1953.1 133.007 1956.22 135.142 1958.81 137.888C1961.56 140.481 1963.7 143.608 1965.22 147.268C1966.9 150.776 1967.74 154.513 1967.74 158.479ZM2151.56 358.671C2132.8 359.281 2116.79 360.807 2103.52 363.247C2090.4 365.535 2079.65 368.586 2071.26 372.399C2063.02 376.212 2057 380.711 2053.18 385.897C2049.52 391.083 2047.69 396.879 2047.69 403.286C2047.69 409.387 2048.68 414.649 2050.67 419.072C2052.65 423.495 2055.32 427.156 2058.68 430.054C2062.18 432.8 2066.23 434.859 2070.8 436.231C2075.53 437.452 2080.56 438.062 2085.9 438.062C2093.07 438.062 2099.63 437.375 2105.58 436.003C2111.53 434.477 2117.09 432.342 2122.28 429.597C2127.62 426.851 2132.65 423.572 2137.38 419.758C2142.26 415.945 2146.99 411.598 2151.56 406.717V358.671ZM2020.01 263.952C2032.82 251.597 2046.63 242.369 2061.42 236.268C2076.22 230.167 2092.61 227.116 2110.61 227.116C2123.58 227.116 2135.09 229.252 2145.16 233.523C2155.22 237.793 2163.69 243.742 2170.55 251.368C2177.42 258.995 2182.6 268.223 2186.11 279.052C2189.62 289.881 2191.37 301.779 2191.37 314.743V463H2173.3C2169.33 463 2166.28 462.39 2164.15 461.17C2162.01 459.797 2160.33 457.204 2159.11 453.391L2154.54 431.427C2148.44 437.07 2142.49 442.104 2136.69 446.527C2130.9 450.798 2124.8 454.458 2118.39 457.509C2111.98 460.407 2105.12 462.619 2097.8 464.144C2090.63 465.822 2082.62 466.661 2073.78 466.661C2064.78 466.661 2056.31 465.44 2048.38 463C2040.45 460.407 2033.51 456.594 2027.56 451.56C2021.76 446.527 2017.11 440.197 2013.6 432.571C2010.25 424.792 2008.57 415.64 2008.57 405.116C2008.57 395.964 2011.09 387.194 2016.12 378.805C2021.15 370.263 2029.31 362.713 2040.6 356.155C2051.89 349.596 2066.61 344.257 2084.76 340.139C2102.91 335.868 2125.18 333.428 2151.56 332.818V314.743C2151.56 296.745 2147.67 283.17 2139.9 274.019C2132.12 264.714 2120.75 260.062 2105.81 260.062C2095.74 260.062 2087.27 261.359 2080.41 263.952C2073.7 266.392 2067.83 269.214 2062.79 272.417C2057.91 275.468 2053.64 278.289 2049.98 280.882C2046.47 283.323 2042.96 284.543 2039.46 284.543C2036.71 284.543 2034.35 283.857 2032.36 282.484C2030.38 280.959 2028.7 279.128 2027.33 276.993L2020.01 263.952Z" fill="white"/>
<defs>
<linearGradient id="paint0_linear_4105_7" x1="285.5" y1="1.00884e-05" x2="624.206" y2="665.102" gradientUnits="userSpaceOnUse">
<stop offset="0.12" stop-color="#A092FA"/>
<stop offset="0.505" stop-color="#7EA5D1"/>
<stop offset="0.795" stop-color="#A294F9"/>
</linearGradient>
</defs>
</svg>
